<?xml version="1.0" encoding="utf-8"?>
<!-- Generator: Adobe Illustrator 18.0.0, SVG Export Plug-In . SVG Version: 6.00 Build 0)  -->
<!DOCTYPE svg PUBLIC "-//W3C//DTD SVG 1.1//EN" "http://www.w3.org/Graphics/SVG/1.1/DTD/svg11.dtd">
<svg version="1.1" id="Layer_1" xmlns="http://www.w3.org/2000/svg" xmlns:xlink="http://www.w3.org/1999/xlink" x="0px" y="0px"
	 viewBox="0 0 121 30" enable-background="new 0 0 121 30" xml:space="preserve">
<g>
	<g>
		<path fill="#FFFFFF" d="M25,19.2l1.4-2.1c0.9,0.9,2.2,1.7,3.9,1.7c1.5,0,2.1-0.6,2.1-1.4c0-2.1-7.1-0.6-7.1-5.3
			c0-2.1,1.8-3.8,4.7-3.8c2,0,3.6,0.6,4.8,1.7l-1.5,2c-1-0.9-2.3-1.4-3.6-1.4c-1.1,0-1.7,0.5-1.7,1.2c0,1.9,7.1,0.6,7.1,5.2
			c0,2.3-1.6,4-4.9,4C27.8,21.2,26.1,20.4,25,19.2z"/>
		<path fill="#FFFFFF" d="M39.4,19.8v4.5H37V12h2.3v1.1c0.7-0.9,1.7-1.4,2.8-1.4c2.3,0,4,1.7,4,4.7s-1.7,4.7-4,4.7
			C41.1,21.2,40.1,20.7,39.4,19.8z M43.7,16.5c0-1.5-0.9-2.6-2.3-2.6c-0.8,0-1.6,0.4-2,1v3.1c0.4,0.6,1.3,1,2,1
			C42.8,19.1,43.7,18,43.7,16.5z"/>
		<path fill="#FFFFFF" d="M53.3,21V20c-0.6,0.7-1.7,1.2-2.8,1.2c-1.4,0-3.1-1-3.1-3c0-2.1,1.7-2.9,3.1-2.9c1.2,0,2.2,0.4,2.8,1.1
			v-1.1c0-0.9-0.8-1.5-2-1.5c-0.9,0-1.8,0.4-2.6,1.1l-0.9-1.6c1.1-1,2.5-1.4,3.9-1.4c2.1,0,3.9,0.8,3.9,3.4V21H53.3z M53.3,18.8
			v-1.1c-0.4-0.5-1.1-0.8-1.9-0.8c-0.9,0-1.7,0.5-1.7,1.4s0.8,1.3,1.7,1.3C52.2,19.6,52.9,19.3,53.3,18.8z"/>
		<path fill="#FFFFFF" d="M57.5,16.5c0-2.7,2-4.7,4.7-4.7c1.8,0,2.9,0.8,3.5,1.6l-1.5,1.4c-0.4-0.6-1.1-1-1.9-1
			c-1.4,0-2.4,1-2.4,2.6c0,1.6,1,2.6,2.4,2.6c0.8,0,1.5-0.4,1.9-1l1.5,1.4c-0.6,0.8-1.7,1.6-3.5,1.6C59.5,21.2,57.5,19.2,57.5,16.5z
			"/>
		<path fill="#FFFFFF" d="M66.6,16.5c0-2.6,1.9-4.7,4.6-4.7c2.7,0,4.5,2,4.5,4.9v0.6H69c0.2,1.1,1.1,2,2.6,2c0.8,0,1.8-0.3,2.4-0.9
			l1.1,1.6c-0.9,0.8-2.3,1.2-3.7,1.2C68.6,21.2,66.6,19.4,66.6,16.5z M71.2,13.7c-1.5,0-2.1,1-2.2,1.9h4.4
			C73.3,14.8,72.8,13.7,71.2,13.7z"/>
		<path fill="#FFFFFF" d="M86.5,21l-2.2-8.5L82.2,21h-2.8L75.9,8.6h2.9l2.2,8.9l2.3-8.9h2.1l2.3,8.9l2.2-8.9h2.9L89.3,21H86.5z"/>
		<path fill="#FFFFFF" d="M99,21V20c-0.6,0.7-1.7,1.2-2.8,1.2c-1.4,0-3.1-1-3.1-3c0-2.1,1.7-2.9,3.1-2.9c1.2,0,2.2,0.4,2.8,1.1v-1.1
			c0-0.9-0.8-1.5-2-1.5c-0.9,0-1.8,0.4-2.6,1.1l-0.9-1.6c1.1-1,2.5-1.4,3.9-1.4c2.1,0,3.9,0.8,3.9,3.4V21H99z M99,18.8v-1.1
			c-0.4-0.5-1.1-0.8-1.9-0.8c-0.9,0-1.7,0.5-1.7,1.4s0.8,1.3,1.7,1.3C97.9,19.6,98.7,19.3,99,18.8z"/>
		<path fill="#FFFFFF" d="M103.6,22.4c0.2,0.1,0.5,0.1,0.7,0.1c0.6,0,1-0.2,1.2-0.6l0.3-0.8l-3.6-9h2.5l2.3,6.2l2.3-6.2h2.5
			l-4.2,10.4c-0.7,1.7-1.8,2.1-3.4,2.2c-0.3,0-0.9-0.1-1.1-0.1L103.6,22.4z"/>
		<path fill="#FFFFFF" d="M112.4,19.8l1-1.7c0.7,0.6,2,1.2,3.1,1.2c1,0,1.5-0.4,1.5-0.9c0-1.5-5.3-0.3-5.3-3.8
			c0-1.5,1.3-2.8,3.7-2.8c1.5,0,2.7,0.5,3.6,1.2l-0.9,1.7c-0.5-0.6-1.6-1-2.6-1c-0.9,0-1.4,0.4-1.4,0.9c0,1.3,5.3,0.2,5.3,3.8
			c0,1.6-1.4,2.8-3.9,2.8C114.8,21.2,113.3,20.7,112.4,19.8z"/>
	</g>
	<path fill="#FFFFFF" d="M17.1,14.7L8.8,10V9.9l8.3-5L8.3,0L0,4.9l0,9.7l8.1,5v0.1L0,24.6L8.4,30l8.7-5.2l0,0h0V14.7z M8.1,18.9
		l-7.4-4.6V5.3l7.4,4.6V18.9z M1.3,4.9l7-4.1l7.4,4.2L8.4,9.3L1.3,4.9z M8.8,19.7l7.7-4.6v9.4L8.8,29V19.7z"/>
</g>
</svg>
