<svg xmlns="http://www.w3.org/2000/svg" xmlns:xlink="http://www.w3.org/1999/xlink" viewBox="0 0 607.68 210.52"><defs><style>.cls-1{fill:#fff;}.cls-2{mask:url(#mask);}.cls-3{fill:#8f8bc1;}.cls-10,.cls-11,.cls-12,.cls-13,.cls-14,.cls-15,.cls-16,.cls-17,.cls-18,.cls-19,.cls-20,.cls-21,.cls-22,.cls-23,.cls-24,.cls-25,.cls-26,.cls-27,.cls-28,.cls-29,.cls-3,.cls-30,.cls-31,.cls-32,.cls-33,.cls-34,.cls-35,.cls-36,.cls-37,.cls-38,.cls-39,.cls-4,.cls-40,.cls-41,.cls-42,.cls-43,.cls-44,.cls-45,.cls-46,.cls-47,.cls-48,.cls-49,.cls-5,.cls-50,.cls-51,.cls-6,.cls-7,.cls-8,.cls-9{stroke:#fff;stroke-width:1.51px;}.cls-4{fill:#7c70b3;}.cls-5{fill:#a8a6d0;}.cls-6{fill:#b0aed4;}.cls-7{fill:#6d54a4;}.cls-8{fill:#7d6eb3;}.cls-9{fill:#a7a5d0;}.cls-10{fill:#8783bd;}.cls-11{fill:#827cb9;}.cls-12{fill:#9995c7;}.cls-13{fill:#7764ad;}.cls-14{fill:#bfbbdb;}.cls-15{fill:#6e52a3;}.cls-16{fill:#7157a7;}.cls-17{fill:#7761ac;}.cls-18{fill:#8d89c0;}.cls-19{fill:#7d6ab0;}.cls-20{fill:#7c65ae;}.cls-21{fill:#9692c5;}.cls-22{fill:#a09cca;}.cls-23{fill:#9e99c7;}.cls-24{fill:#c4c0dd;}.cls-25{fill:#bebbda;}.cls-26{fill:#b7b4d7;}.cls-27{fill:#adabd2;}.cls-28{fill:#7256a5;}.cls-29{fill:#aba9d1;}.cls-30{fill:#8981bc;}.cls-31{fill:#bdbbda;}.cls-32{fill:#b5b3d6;}.cls-33{fill:#8e8ac0;}.cls-34{fill:#765ba8;}.cls-35{fill:#8478b7;}.cls-36{fill:#8476b6;}.cls-37{fill:#cbc8e1;}.cls-38{fill:#7d62ac;}.cls-39{fill:#785ca8;}.cls-40{fill:#b1b0d4;}.cls-41{fill:#cac7e0;}.cls-42{fill:#8f89c0;}.cls-43{fill:#8470b4;}.cls-44{fill:#b7b6d7;}.cls-45{fill:#c2c0dc;}.cls-46{fill:#c6c5df;}.cls-47{fill:#836db2;}.cls-48{fill:#8879b8;}.cls-49{fill:#bdbcdb;}.cls-50{fill:#a5a2cd;}.cls-51{fill:#8d81bc;}</style><mask id="mask" x="0" y="0" width="607.68" height="210.52" maskUnits="userSpaceOnUse"><path class="cls-1" d="M134.12,145.37V121.89H97.86V98.17H157.6v71.59H38.36V50.29H157.6V74H62.75v71.36Z"/><path class="cls-1" d="M280,169.76H181.77V50.52h23.48v95.53H280Z"/><path class="cls-1" d="M423,50.52v119H399.5V121.66H328.14v47.88h-24.4v-119h24.4V97.94H399.5V50.52Z"/><path class="cls-1" d="M470.64,74V98.17h94.85v23.71H470.64v47.88H447.16V50.29H565.49V74Z"/></mask></defs><title>logo-new</title><g id="Слой_2" data-name="Слой 2"><g id="Слой_2-2" data-name="Слой 2"><g class="cls-2"><path class="cls-3" d="M299.61,154.11l-48,21.89,73.22,4.78Z"/><path class="cls-4" d="M183.78,123.87,125,184l82.32,2.39Z"/><path class="cls-5" d="M446.47,135.81,391,174.41l59.16,33.82Z"/><path class="cls-6" d="M497.35,138.59l-50.88-2.79,3.72,72.42Z"/><path class="cls-7" d="M45.2,145l-17,25.87L93.18,178Z"/><path class="cls-8" d="M183.78,123.87l-24-8.36L125,184Z"/><path class="cls-9" d="M446.47,135.81l-57.92,5.57,2.48,33Z"/><path class="cls-10" d="M255.76,117.5l-72,6.37L251.62,176Z"/><path class="cls-11" d="M251.62,176l-67.84-52.13,23.58,62.48Z"/><path class="cls-12" d="M388.55,141.38l-88.94,12.73,25.23,26.66Z"/><path class="cls-13" d="M159.78,115.51,93.18,178,125,184Z"/><path class="cls-14" d="M606.15,137,554,154.51,581.74,184Z"/><path class="cls-15" d="M45.2,145l-43-60.88,26.06,86.75Z"/><path class="cls-16" d="M61.74,121.08,45.2,145l48,33Z"/><path class="cls-17" d="M159.78,115.51l-98,5.57L93.18,178Z"/><path class="cls-18" d="M299.61,154.11,255.76,117.5,251.62,176Z"/><path class="cls-19" d="M159.78,115.51,144.89,79.3,61.74,121.08Z"/><path class="cls-20" d="M144.89,79.3,82.43,72.93,61.74,121.08Z"/><path class="cls-21" d="M298.37,63.78,270.65,97.6l29,56.51Z"/><path class="cls-22" d="M388.55,141.38,358.35,60.6l-58.74,93.52Z"/><path class="cls-23" d="M358.35,60.6l-60,3.18,1.24,90.33Z"/><path class="cls-24" d="M603.66,96.81,533.34,69.35,554,154.51Z"/><path class="cls-25" d="M533.34,69.35l-36,69.24L554,154.51Z"/><path class="cls-26" d="M470.87,77.71l-24.41,58.1,50.88,2.79Z"/><path class="cls-27" d="M446.47,135.81,429.09,86.86l-40.54,54.52Z"/><path class="cls-28" d="M61.74,121.08l-59.57-37L45.2,145Z"/><path class="cls-29" d="M429.09,86.86,358.35,60.6l30.2,80.78Z"/><path class="cls-30" d="M255.76,117.5l-74-46.56,2.07,52.93Z"/><path class="cls-31" d="M533.34,69.35l-62.47,8.36,26.48,60.88Z"/><path class="cls-32" d="M470.87,77.71l-41.78,9.15,17.37,48.95Z"/><path class="cls-33" d="M270.65,97.6,181.71,70.94l74,46.56Z"/><path class="cls-34" d="M82.43,72.93,2.17,84.07l59.57,37Z"/><path class="cls-35" d="M181.71,70.94l-21.93,44.57,24,8.36Z"/><path class="cls-36" d="M181.71,70.94,144.89,79.3l14.89,36.21Z"/><path class="cls-37" d="M587.94,31.15l-40.13,4.38L533.34,69.35Z"/><path class="cls-38" d="M65.47,20.8,7.55,31.95l74.88,41Z"/><path class="cls-39" d="M82.43,72.93l-74.88-41L2.17,84.07Z"/><path class="cls-40" d="M425,41.1l-66.6,19.5,70.74,26.26Z"/><path class="cls-41" d="M587.94,31.15l-54.61,38.2,70.33,27.46Z"/><path class="cls-42" d="M199.5,22.39,181.71,70.94,270.65,97.6Z"/><path class="cls-43" d="M154.41,30.35l-72,42.58,62.47,6.37Z"/><path class="cls-44" d="M470.87,77.71,425,41.1l4.14,45.76Z"/><path class="cls-45" d="M533.34,69.35,466.74,9.66l4.14,68Z"/><path class="cls-46" d="M547.82,35.53,466.74,9.66l66.6,59.69Z"/><path class="cls-47" d="M154.41,30.35,65.47,20.8l17,52.13Z"/><path class="cls-48" d="M181.71,70.94l-27.3-40.59L144.89,79.3Z"/><path class="cls-49" d="M466.74,9.66,425,41.1l45.92,36.61Z"/><path class="cls-50" d="M358.35,60.6,319.47,1.7l-21.1,62.08Z"/><path class="cls-51" d="M199.5,22.39l-45.09,8,27.3,40.59Z"/></g></g></g></svg>