<svg xmlns="http://www.w3.org/2000/svg" xmlns:xlink="http://www.w3.org/1999/xlink" viewBox="0 0 544.34 936.3"><defs><style>.cls-1{fill:none;stroke-miterlimit:10;}.cls-1,.cls-10,.cls-100,.cls-101,.cls-102,.cls-103,.cls-104,.cls-105,.cls-106,.cls-107,.cls-108,.cls-109,.cls-11,.cls-110,.cls-111,.cls-112,.cls-113,.cls-114,.cls-115,.cls-116,.cls-117,.cls-118,.cls-119,.cls-12,.cls-120,.cls-121,.cls-122,.cls-123,.cls-124,.cls-125,.cls-126,.cls-127,.cls-128,.cls-129,.cls-13,.cls-130,.cls-131,.cls-132,.cls-133,.cls-134,.cls-135,.cls-136,.cls-137,.cls-138,.cls-139,.cls-14,.cls-140,.cls-141,.cls-142,.cls-143,.cls-144,.cls-145,.cls-146,.cls-147,.cls-148,.cls-149,.cls-15,.cls-150,.cls-151,.cls-152,.cls-153,.cls-154,.cls-155,.cls-156,.cls-157,.cls-158,.cls-159,.cls-16,.cls-160,.cls-161,.cls-162,.cls-163,.cls-164,.cls-165,.cls-166,.cls-167,.cls-168,.cls-169,.cls-17,.cls-170,.cls-171,.cls-172,.cls-173,.cls-174,.cls-175,.cls-176,.cls-177,.cls-178,.cls-179,.cls-18,.cls-180,.cls-181,.cls-182,.cls-183,.cls-184,.cls-185,.cls-186,.cls-187,.cls-188,.cls-189,.cls-19,.cls-190,.cls-191,.cls-192,.cls-193,.cls-194,.cls-195,.cls-196,.cls-197,.cls-198,.cls-199,.cls-20,.cls-200,.cls-201,.cls-202,.cls-203,.cls-204,.cls-205,.cls-206,.cls-207,.cls-208,.cls-209,.cls-21,.cls-210,.cls-211,.cls-212,.cls-213,.cls-214,.cls-215,.cls-216,.cls-217,.cls-218,.cls-219,.cls-22,.cls-220,.cls-221,.cls-222,.cls-223,.cls-224,.cls-225,.cls-226,.cls-227,.cls-228,.cls-229,.cls-23,.cls-230,.cls-231,.cls-232,.cls-233,.cls-234,.cls-235,.cls-236,.cls-237,.cls-238,.cls-239,.cls-24,.cls-240,.cls-241,.cls-242,.cls-243,.cls-244,.cls-245,.cls-246,.cls-247,.cls-248,.cls-249,.cls-25,.cls-250,.cls-251,.cls-252,.cls-253,.cls-254,.cls-255,.cls-256,.cls-257,.cls-258,.cls-259,.cls-26,.cls-260,.cls-261,.cls-262,.cls-263,.cls-264,.cls-265,.cls-266,.cls-267,.cls-268,.cls-269,.cls-27,.cls-270,.cls-271,.cls-272,.cls-273,.cls-274,.cls-275,.cls-276,.cls-277,.cls-278,.cls-279,.cls-28,.cls-280,.cls-281,.cls-282,.cls-283,.cls-284,.cls-285,.cls-286,.cls-287,.cls-288,.cls-289,.cls-29,.cls-290,.cls-291,.cls-292,.cls-293,.cls-294,.cls-295,.cls-296,.cls-297,.cls-298,.cls-299,.cls-3,.cls-30,.cls-300,.cls-301,.cls-302,.cls-303,.cls-304,.cls-305,.cls-306,.cls-307,.cls-308,.cls-309,.cls-31,.cls-310,.cls-311,.cls-312,.cls-313,.cls-314,.cls-315,.cls-316,.cls-317,.cls-318,.cls-319,.cls-32,.cls-320,.cls-321,.cls-322,.cls-323,.cls-324,.cls-325,.cls-326,.cls-327,.cls-328,.cls-329,.cls-33,.cls-330,.cls-331,.cls-332,.cls-333,.cls-334,.cls-335,.cls-336,.cls-337,.cls-338,.cls-339,.cls-34,.cls-35,.cls-36,.cls-37,.cls-38,.cls-39,.cls-4,.cls-40,.cls-41,.cls-42,.cls-43,.cls-44,.cls-45,.cls-46,.cls-47,.cls-48,.cls-49,.cls-5,.cls-50,.cls-51,.cls-52,.cls-53,.cls-54,.cls-55,.cls-56,.cls-57,.cls-58,.cls-59,.cls-6,.cls-60,.cls-61,.cls-62,.cls-63,.cls-64,.cls-65,.cls-66,.cls-67,.cls-68,.cls-69,.cls-7,.cls-70,.cls-71,.cls-72,.cls-73,.cls-74,.cls-75,.cls-76,.cls-77,.cls-78,.cls-79,.cls-8,.cls-80,.cls-81,.cls-82,.cls-83,.cls-84,.cls-85,.cls-86,.cls-87,.cls-88,.cls-89,.cls-9,.cls-90,.cls-91,.cls-92,.cls-93,.cls-94,.cls-95,.cls-96,.cls-97,.cls-98,.cls-99{stroke:#fff;}.cls-2{clip-path:url(#clip-path);}.cls-3{fill:#8062ac;}.cls-10,.cls-100,.cls-101,.cls-102,.cls-103,.cls-104,.cls-105,.cls-106,.cls-107,.cls-108,.cls-109,.cls-11,.cls-110,.cls-111,.cls-112,.cls-113,.cls-114,.cls-115,.cls-116,.cls-117,.cls-118,.cls-119,.cls-12,.cls-120,.cls-121,.cls-122,.cls-123,.cls-124,.cls-125,.cls-126,.cls-127,.cls-128,.cls-129,.cls-13,.cls-130,.cls-131,.cls-132,.cls-133,.cls-134,.cls-135,.cls-136,.cls-137,.cls-138,.cls-139,.cls-14,.cls-140,.cls-141,.cls-142,.cls-143,.cls-144,.cls-145,.cls-146,.cls-147,.cls-148,.cls-149,.cls-15,.cls-150,.cls-151,.cls-152,.cls-153,.cls-154,.cls-155,.cls-156,.cls-157,.cls-158,.cls-159,.cls-16,.cls-160,.cls-161,.cls-162,.cls-163,.cls-164,.cls-165,.cls-166,.cls-167,.cls-168,.cls-169,.cls-17,.cls-170,.cls-171,.cls-172,.cls-173,.cls-174,.cls-175,.cls-176,.cls-177,.cls-178,.cls-179,.cls-18,.cls-180,.cls-181,.cls-182,.cls-183,.cls-184,.cls-185,.cls-186,.cls-187,.cls-188,.cls-189,.cls-19,.cls-190,.cls-191,.cls-192,.cls-193,.cls-194,.cls-195,.cls-196,.cls-197,.cls-198,.cls-199,.cls-20,.cls-200,.cls-201,.cls-202,.cls-203,.cls-204,.cls-205,.cls-206,.cls-207,.cls-208,.cls-209,.cls-21,.cls-210,.cls-211,.cls-212,.cls-213,.cls-214,.cls-215,.cls-216,.cls-217,.cls-218,.cls-219,.cls-22,.cls-220,.cls-221,.cls-222,.cls-223,.cls-224,.cls-225,.cls-226,.cls-227,.cls-228,.cls-229,.cls-23,.cls-230,.cls-231,.cls-232,.cls-233,.cls-234,.cls-235,.cls-236,.cls-237,.cls-238,.cls-239,.cls-24,.cls-240,.cls-241,.cls-242,.cls-243,.cls-244,.cls-245,.cls-246,.cls-247,.cls-248,.cls-249,.cls-25,.cls-250,.cls-251,.cls-252,.cls-253,.cls-254,.cls-255,.cls-256,.cls-257,.cls-258,.cls-259,.cls-26,.cls-260,.cls-261,.cls-262,.cls-263,.cls-264,.cls-265,.cls-266,.cls-267,.cls-268,.cls-269,.cls-27,.cls-270,.cls-271,.cls-272,.cls-273,.cls-274,.cls-275,.cls-276,.cls-277,.cls-278,.cls-279,.cls-28,.cls-280,.cls-281,.cls-282,.cls-283,.cls-284,.cls-285,.cls-286,.cls-287,.cls-288,.cls-289,.cls-29,.cls-290,.cls-291,.cls-292,.cls-293,.cls-294,.cls-295,.cls-296,.cls-297,.cls-298,.cls-299,.cls-3,.cls-30,.cls-300,.cls-301,.cls-302,.cls-303,.cls-304,.cls-305,.cls-306,.cls-307,.cls-308,.cls-309,.cls-31,.cls-310,.cls-311,.cls-312,.cls-313,.cls-314,.cls-315,.cls-316,.cls-317,.cls-318,.cls-319,.cls-32,.cls-320,.cls-321,.cls-322,.cls-323,.cls-324,.cls-325,.cls-326,.cls-327,.cls-328,.cls-329,.cls-33,.cls-330,.cls-331,.cls-332,.cls-333,.cls-334,.cls-335,.cls-336,.cls-337,.cls-338,.cls-339,.cls-34,.cls-35,.cls-36,.cls-37,.cls-38,.cls-39,.cls-4,.cls-40,.cls-41,.cls-42,.cls-43,.cls-44,.cls-45,.cls-46,.cls-47,.cls-48,.cls-49,.cls-5,.cls-50,.cls-51,.cls-52,.cls-53,.cls-54,.cls-55,.cls-56,.cls-57,.cls-58,.cls-59,.cls-6,.cls-60,.cls-61,.cls-62,.cls-63,.cls-64,.cls-65,.cls-66,.cls-67,.cls-68,.cls-69,.cls-7,.cls-70,.cls-71,.cls-72,.cls-73,.cls-74,.cls-75,.cls-76,.cls-77,.cls-78,.cls-79,.cls-8,.cls-80,.cls-81,.cls-82,.cls-83,.cls-84,.cls-85,.cls-86,.cls-87,.cls-88,.cls-89,.cls-9,.cls-90,.cls-91,.cls-92,.cls-93,.cls-94,.cls-95,.cls-96,.cls-97,.cls-98,.cls-99{stroke-width:1.51px;}.cls-4{fill:#cdcae2;}.cls-5{fill:#d5d4e8;}.cls-6{fill:#dadaeb;}.cls-7{fill:#c6c3df;}.cls-8{fill:#c5c1de;}.cls-9{fill:#562d90;}.cls-10{fill:#51258c;}.cls-11{fill:#604099;}.cls-12{fill:#a78ac4;}.cls-13{fill:#a485c1;}.cls-14{fill:#9b7bba;}.cls-15{fill:#7a5da9;}.cls-16{fill:#8064ad;}.cls-17{fill:#8569b0;}.cls-18{fill:#7557a5;}.cls-19{fill:#9474b6;}.cls-20{fill:#8a6db2;}.cls-21{fill:#6b4da0;}.cls-22{fill:#664b9f;}.cls-23{fill:#9f7fbd;}.cls-24{fill:#4f1f8a;}.cls-25{fill:#65479d;}.cls-26{fill:#7357a5;}.cls-27{fill:#5c3895;}.cls-28{fill:#583192;}.cls-29{fill:#997bba;}.cls-30{fill:#9175b7;}.cls-31{fill:#7055a5;}.cls-32{fill:#8d71b5;}.cls-33{fill:#5f3f99;}.cls-34{fill:#755ba9;}.cls-35{fill:#9779ba;}.cls-36{fill:#552c90;}.cls-37{fill:#a081be;}.cls-38{fill:#4d1c89;}.cls-39{fill:#9d7fbd;}.cls-40{fill:#8e74b8;}.cls-41{fill:#50228b;}.cls-42{fill:#5a3394;}.cls-43{fill:#a587c2;}.cls-44{fill:#9e82bf;}.cls-45{fill:#9a7ebd;}.cls-46{fill:#603e9a;}.cls-47{fill:#53268e;}.cls-48{fill:#593093;}.cls-49{fill:#62419b;}.cls-50{fill:#836ab2;}.cls-51{fill:#7e64ae;}.cls-52{fill:#7159a8;}.cls-53{fill:#a68bc5;}.cls-54{fill:#826bb2;}.cls-55{fill:#684da2;}.cls-56{fill:#6a51a4;}.cls-57{fill:#a388c2;}.cls-58{fill:#8c73b6;}.cls-59{fill:#977dbc;}.cls-60{fill:#edecf4;}.cls-61{fill:#9983bf;}.cls-62{fill:#9c84c0;}.cls-63{fill:#552a90;}.cls-64{fill:#6b51a4;}.cls-65{fill:#7962ad;}.cls-66{fill:#917bbb;}.cls-67{fill:#8874b6;}.cls-68{fill:#a48bc4;}.cls-69{fill:#674aa0;}.cls-70{fill:#63439c;}.cls-71{fill:#7966ae;}.cls-72{fill:#a790c6;}.cls-73{fill:#715eaa;}.cls-74{fill:#aa91c8;}.cls-75{fill:#b8b0d7;}.cls-76{fill:#5e3997;}.cls-77{fill:#8e7bbb;}.cls-78{fill:#aa93c8;}.cls-79{fill:#62419a;}.cls-80{fill:#8668af;}.cls-81{fill:#5c3897;}.cls-82{fill:#7f6db2;}.cls-83{fill:#a190c6;}.cls-84{fill:#ad9acb;}.cls-85{fill:#a092c6;}.cls-86{fill:#a895c9;}.cls-87{fill:#694fa1;}.cls-88{fill:#66489f;}.cls-89{fill:#7364ac;}.cls-90{fill:#a897ca;}.cls-91{fill:#8471b4;}.cls-92{fill:#8e7ebc;}.cls-93{fill:#8777b7;}.cls-94{fill:#ae9ccc;}.cls-95{fill:#5c3795;}.cls-96{fill:#6d56a5;}.cls-97{fill:#64449c;}.cls-98{fill:#9688c1;}.cls-99{fill:#7b6db1;}.cls-100{fill:#bcb7da;}.cls-101{fill:#968cc2;}.cls-102{fill:#b1a3d0;}.cls-103{fill:#b4a7d2;}.cls-104{fill:#7e71b4;}.cls-105{fill:#897cba;}.cls-106{fill:#603e99;}.cls-107{fill:#684da1;}.cls-108{fill:#65479f;}.cls-109{fill:#684c9f;}.cls-110{fill:#8579b8;}.cls-111{fill:#7565ae;}.cls-112{fill:#9187c0;}.cls-113{fill:#a49aca;}.cls-114{fill:#6d57a6;}.cls-115{fill:#a99fcd;}.cls-116{fill:#9e96c8;}.cls-117{fill:#aba0cd;}.cls-118{fill:#afa4d0;}.cls-119{fill:#7a6fb3;}.cls-120{fill:#a19ccb;}.cls-121{fill:#8b84be;}.cls-122{fill:#8884bd;}.cls-123{fill:#7b72b4;}.cls-124{fill:#6b52a3;}.cls-125{fill:#664a9f;}.cls-126{fill:#684ea1;}.cls-127{fill:#705ca9;}.cls-128{fill:#b1aad3;}.cls-129{fill:#b5afd6;}.cls-130{fill:#817cba;}.cls-131{fill:#7260ab;}.cls-132{fill:#b7afd5;}.cls-133{fill:#b7b2d7;}.cls-134{fill:#a09ccc;}.cls-135{fill:#a9a2ce;}.cls-136{fill:#776bb1;}.cls-137{fill:#928dc3;}.cls-138{fill:#ada9d2;}.cls-139{fill:#9996c7;}.cls-140{fill:#8f8bc1;}.cls-141{fill:#7c70b3;}.cls-142{fill:#a8a6d0;}.cls-143{fill:#b1aed4;}.cls-144{fill:#b0aed4;}.cls-145{fill:#6d54a4;}.cls-146{fill:#9e9bca;}.cls-147{fill:#7d6eb3;}.cls-148{fill:#bbb7d9;}.cls-149{fill:#b6b3d6;}.cls-150{fill:#d1cee5;}.cls-151{fill:#a7a5d0;}.cls-152{fill:#8783bd;}.cls-153{fill:#827cb9;}.cls-154{fill:#9995c7;}.cls-155{fill:#7764ad;}.cls-156{fill:#bfbbdb;}.cls-157{fill:#6e52a3;}.cls-158{fill:#7157a7;}.cls-159{fill:#7761ac;}.cls-160{fill:#bab6d9;}.cls-161{fill:#8d89c0;}.cls-162{fill:#7d6ab0;}.cls-163{fill:#7c65ae;}.cls-164{fill:#9692c5;}.cls-165{fill:#a09cca;}.cls-166{fill:#9e99c7;}.cls-167{fill:#928dc2;}.cls-168{fill:#c3bfdd;}.cls-169{fill:#c4c0dd;}.cls-170{fill:#bebbda;}.cls-171{fill:#b7b4d7;}.cls-172{fill:#adabd2;}.cls-173{fill:#7256a5;}.cls-174{fill:#aba9d1;}.cls-175{fill:#8981bc;}.cls-176{fill:#bdbbda;}.cls-177{fill:#b5b3d6;}.cls-178{fill:#8e8ac0;}.cls-179{fill:#765ba8;}.cls-180{fill:#8478b7;}.cls-181{fill:#8476b6;}.cls-182{fill:#cbc8e1;}.cls-183{fill:#7d62ac;}.cls-184{fill:#785ca8;}.cls-185{fill:#b1b0d4;}.cls-186{fill:#cac7e0;}.cls-187{fill:#9995c6;}.cls-188{fill:#9591c5;}.cls-189{fill:#8f89c0;}.cls-190{fill:#8470b4;}.cls-191{fill:#b7b6d7;}.cls-192{fill:#c2c0dc;}.cls-193{fill:#c6c5df;}.cls-194{fill:#836db2;}.cls-195{fill:#8879b8;}.cls-196{fill:#bdbcdb;}.cls-197{fill:#b0afd4;}.cls-198{fill:#a5a2cd;}.cls-199{fill:#8d81bc;}.cls-200{fill:#a4a1cd;}.cls-201{fill:#aca9d1;}.cls-202{fill:#a09dca;}.cls-203{fill:#cccce3;}.cls-204{fill:#8771b5;}.cls-205{fill:#cfcde4;}.cls-206{fill:#cbcae3;}.cls-207{fill:#b9b9da;}.cls-208{fill:#c0bfdd;}.cls-209{fill:#babadb;}.cls-210{fill:#8d7cbb;}.cls-211{fill:#d5d3e8;}.cls-212{fill:#9186bf;}.cls-213{fill:#f1eff6;}.cls-214{fill:#9285bf;}.cls-215{fill:#856bb2;}.cls-216{fill:#968fc4;}.cls-217{fill:#b0b0d4;}.cls-218{fill:#a19ecc;}.cls-219{fill:#9a96c8;}.cls-220{fill:#c7c7e2;}.cls-221{fill:#8b6eb3;}.cls-222{fill:#d3d3e7;}.cls-223{fill:#aeacd2;}.cls-224{fill:#886db2;}.cls-225{fill:#8f7cbb;}.cls-226{fill:#a5a3cf;}.cls-227{fill:#acaad1;}.cls-228{fill:#b1b1d5;}.cls-229{fill:#d8d7ea;}.cls-230{fill:#8c72b6;}.cls-231{fill:#9484be;}.cls-232{fill:#9d96c8;}.cls-233{fill:#968ac2;}.cls-234{fill:#9b90c5;}.cls-235{fill:#ddddec;}.cls-236{fill:#c8c9e2;}.cls-237{fill:#cccde5;}.cls-238{fill:#c2c2df;}.cls-239{fill:#c0c1de;}.cls-240{fill:#babada;}.cls-241{fill:#d2d2e7;}.cls-242{fill:#a29fcd;}.cls-243{fill:#e0dfef;}.cls-244{fill:#bebddc;}.cls-245{fill:#b4b1d5;}.cls-246{fill:#cccce4;}.cls-247{fill:#c7c8e2;}.cls-248{fill:#9076b8;}.cls-249{fill:#9581be;}.cls-250{fill:#9a7bba;}.cls-251{fill:#d7d7ea;}.cls-252{fill:#9b88c2;}.cls-253{fill:#9174b7;}.cls-254{fill:#e1e0ee;}.cls-255{fill:#bab9d9;}.cls-256{fill:#9e91c6;}.cls-257{fill:#dedeed;}.cls-258{fill:#a8a3cf;}.cls-259{fill:#e7e6f2;}.cls-260{fill:#d4d4e8;}.cls-261{fill:#c7c7e1;}.cls-262{fill:#a398c9;}.cls-263{fill:#e2e1ef;}.cls-264{fill:#aeabd3;}.cls-265{fill:#cbcbe4;}.cls-266{fill:#d1d0e6;}.cls-267{fill:#d6d6e9;}.cls-268{fill:#9d88c1;}.cls-269{fill:#987dbc;}.cls-270{fill:#997cbc;}.cls-271{fill:#bebddb;}.cls-272{fill:#9d7ebc;}.cls-273{fill:#b3b0d6;}.cls-274{fill:#e7e7f2;}.cls-275{fill:#dbdbec;}.cls-276{fill:#c6c5e0;}.cls-277{fill:#a69aca;}.cls-278{fill:#a390c6;}.cls-279{fill:#b8b5d7;}.cls-280{fill:#a697c9;}.cls-281{fill:#aba4d0;}.cls-282{fill:#e0dfee;}.cls-283{fill:#e7e6f1;}.cls-284{fill:#c9c8e1;}.cls-285{fill:#bab7d8;}.cls-286{fill:#eeecf5;}.cls-287{fill:#eae9f3;}.cls-288{fill:#e6e4f0;}.cls-289{fill:#9c80be;}.cls-290{fill:#e6e5f1;}.cls-291{fill:#afa7d2;}.cls-292{fill:#a084c0;}.cls-293{fill:#a693c8;}.cls-294{fill:#a99acb;}.cls-295{fill:#aca1ce;}.cls-296{fill:#c6c4df;}.cls-297{fill:#b6b1d6;}.cls-298{fill:#a48ec5;}.cls-299{fill:#c1bedc;}.cls-300{fill:#d2d2e6;}.cls-301{fill:#d3d3e8;}.cls-302{fill:#f1f0f7;}.cls-303{fill:#a790c7;}.cls-304{fill:#ab98ca;}.cls-305{fill:#aea1ce;}.cls-306{fill:#bab6d8;}.cls-307{fill:#d8d8ea;}.cls-308{fill:#a082bf;}.cls-309{fill:#cdcae3;}.cls-310{fill:#f2f0f7;}.cls-311{fill:#dfdeed;}.cls-312{fill:#b2a5d1;}.cls-313{fill:#b7b0d6;}.cls-314{fill:#e4e3f0;}.cls-315{fill:#c0bddc;}.cls-316{fill:#ebeaf4;}.cls-317{fill:#c9c7e1;}.cls-318{fill:#a487c2;}.cls-319{fill:#d1cfe5;}.cls-320{fill:#a588c3;}.cls-321{fill:#ad99cb;}.cls-322{fill:#b0a1ce;}.cls-323{fill:#f1f0f6;}.cls-324{fill:#f5f3f9;}.cls-325{fill:#ab93c8;}.cls-326{fill:#b9b2d7;}.cls-327{fill:#e2e2ef;}.cls-328{fill:#bbb7da;}.cls-329{fill:#c4c1de;}.cls-330{fill:#dddcec;}.cls-331{fill:#e8e8f2;}.cls-332{fill:#a586c1;}.cls-333{fill:#b4a7d1;}.cls-334{fill:#f4f3f9;}.cls-335{fill:#aa8fc6;}.cls-336{fill:#d7d5e9;}.cls-337{fill:#af9acc;}.cls-338{fill:#ececf5;}.cls-339{fill:#b4a5d1;}</style><clipPath id="clip-path"><path class="cls-1" d="M505.31,310.41v-88H61.16V871.78H505.31V400.09H282.81v88h135v87.14H152V310.41ZM354.25,690.22H465.83v22.36H376.39v22.79h89.44v22.36H376.39v45.15H354.25ZM219,690.43h23v44.72h67.29V690.43h22.15V802.66H309.31V757.51H242v45.15H219Zm-22.36,90.08v22.36H104V690.43h22.14v90.08Z"/></clipPath></defs><title>Ресурс 11</title><g id="Слой_2" data-name="Слой 2"><g id="Слой_2-2" data-name="Слой 2"><g class="cls-2"><path class="cls-3" d="M6.64,422.31l5.42-191.41L1.94,474.44Z"/><path class="cls-4" d="M533.12,341.13l-5.42,146,2.17,40.19Z"/><path class="cls-5" d="M537.45,285.82l-4.34,55.31-3.25,186.23Z"/><path class="cls-6" d="M542.52,82.47l-5.06,203.35-5.79,413.46Z"/><path class="cls-7" d="M537.45,285.82l-7.59,241.55,1.81,171.91Z"/><path class="cls-8" d="M542.52,82.47l-10.85,616.8-1.08,69.64Z"/><path class="cls-9" d="M29.06,742.65,9.18,628.84l9,219.26Z"/><path class="cls-10" d="M90.89,901.43l-51,2L140.79,915Z"/><path class="cls-11" d="M229,909.79,163.94,907l-23.14,8Z"/><path class="cls-12" d="M530.58,768.92l-4,29.85L516.12,924.11Z"/><path class="cls-13" d="M526.61,798.76l-17,72.82,6.51,52.53Z"/><path class="cls-14" d="M466.58,897.85l-43,2.79,92.57,23.48Z"/><path class="cls-15" d="M286.15,856.86l-12.29,47.75,55.68,29Z"/><path class="cls-16" d="M334.24,840.55l-48.09,16.32,43.39,76.8Z"/><path class="cls-17" d="M376.55,906.6l-42.31-66.06-4.7,93.12Z"/><path class="cls-18" d="M273.86,904.61,229,909.79l100.52,23.88Z"/><path class="cls-19" d="M516.12,924.11l-92.57-23.48-94,33Z"/><path class="cls-20" d="M423.55,900.63l-47,6-47,27.06Z"/><path class="cls-21" d="M229,909.79,140.79,915l188.75,18.7Z"/><path class="cls-22" d="M209.86,839.75,163.94,907,229,909.79Z"/><path class="cls-23" d="M509.61,871.58l-43,26.26,49.54,26.26Z"/><path class="cls-24" d="M90.89,901.43l-20.25-39-30.73,41Z"/><path class="cls-25" d="M209.86,839.75H167.55L163.94,907Z"/><path class="cls-26" d="M273.86,904.61l12.29-47.75L229,909.79Z"/><path class="cls-27" d="M163.94,907l-25.31-45.36L140.79,915Z"/><path class="cls-28" d="M138.62,861.64,90.89,901.43,140.79,915Z"/><path class="cls-29" d="M466.58,897.85,438,861.24l-14.46,39.4Z"/><path class="cls-30" d="M423.55,900.63l-30.37-58.5L376.55,906.6Z"/><path class="cls-31" d="M286.15,856.86l-76.29-17.11,19.16,70Z"/><path class="cls-32" d="M393.18,842.14l-58.94-1.59,42.31,66.06Z"/><path class="cls-33" d="M167.55,839.75l-28.93,21.89L163.94,907Z"/><path class="cls-34" d="M260.12,819.06l-50.26,20.69,76.29,17.11Z"/><path class="cls-35" d="M438,861.24l-44.84-19.1,30.37,58.5Z"/><path class="cls-36" d="M138.62,861.64l-68,.8,20.25,39Z"/><path class="cls-37" d="M509.61,871.58l-32.18-26.66-10.85,52.93Z"/><path class="cls-38" d="M70.65,862.43,18.22,848.11l21.7,55.31Z"/><path class="cls-39" d="M477.43,844.92,438,861.24l28.57,36.61Z"/><path class="cls-40" d="M367.51,817.86l-33.27,22.68,58.94,1.59Z"/><path class="cls-41" d="M29.79,823.43l-.72-80.78L18.22,848.11Z"/><path class="cls-42" d="M138.62,861.64l-25.31-74.41L70.65,862.43Z"/><path class="cls-24" d="M29.79,823.43,18.22,848.11l52.43,14.33Z"/><path class="cls-43" d="M526.61,798.76l-49.18,46.16,32.18,26.66Z"/><path class="cls-44" d="M477.43,844.92l-35.8-39.4L438,861.24Z"/><path class="cls-45" d="M441.63,805.53l-48.45,36.61L438,861.24Z"/><path class="cls-46" d="M154.9,809.51l-41.58-22.28,25.31,74.41Z"/><path class="cls-47" d="M73.18,785.63l-43.39,37.8,40.86,39Z"/><path class="cls-48" d="M113.31,787.22l-40.14-1.59-2.53,76.8Z"/><path class="cls-49" d="M167.55,839.75,154.9,809.51l-16.27,52.13Z"/><path class="cls-50" d="M338.22,792l-78.1,27.06,74.13,21.49Z"/><path class="cls-51" d="M334.24,840.55l-74.13-21.49,26,37.8Z"/><path class="cls-52" d="M260.12,819.06l-40.86-22.68-9.4,43.38Z"/><path class="cls-53" d="M526.61,798.76l-34-15.52-15.19,61.68Z"/><path class="cls-54" d="M338.22,792l-56.41-33-21.7,60.09Z"/><path class="cls-55" d="M219.26,796.37,154.9,809.51l12.66,30.24Z"/><path class="cls-56" d="M219.26,796.37l-51.71,43.38h42.31Z"/><path class="cls-57" d="M492.62,783.24l-51,22.28,35.8,39.4Z"/><path class="cls-58" d="M367.51,817.86,338.22,792l-4,48.55Z"/><path class="cls-59" d="M441.63,805.53l-74.13,12.34,25.67,24.27Z"/><path class="cls-60" d="M542.52,82.47,532.39,206.23l5.06,79.59Z"/><path class="cls-61" d="M439.83,762.95,361,728.72l6.51,89.14Z"/><path class="cls-62" d="M441.63,805.53l-1.81-42.58-72.32,54.92Z"/><path class="cls-63" d="M73.18,785.63l-44.11-43,.72,80.78Z"/><path class="cls-64" d="M219.26,796.37l-62.92-53.32-1.45,66.46Z"/><path class="cls-65" d="M281.81,759l-62.55,37.41,40.86,22.68Z"/><path class="cls-66" d="M361,728.72,338.22,792l29.29,25.87Z"/><path class="cls-27" d="M33.4,681.37,9.18,628.84,29.06,742.65Z"/><path class="cls-67" d="M309.29,742.65,281.81,759l56.41,33Z"/><path class="cls-68" d="M492.62,783.24l-52.79-20.29,1.81,42.58Z"/><path class="cls-69" d="M156.34,743.05,135,764.14l19.89,45.36Z"/><path class="cls-70" d="M135,764.14l-21.7,23.08,41.58,22.28Z"/><path class="cls-71" d="M281.81,759l-49.18-29.85-13.38,67.25Z"/><path class="cls-72" d="M487.56,750.61l-47.73,12.34,52.79,20.29Z"/><path class="cls-73" d="M232.64,729.12l-76.29,13.93,62.92,53.32Z"/><path class="cls-74" d="M530.58,768.92l-38,14.33,34,15.52Z"/><path class="cls-75" d="M529.86,527.37l-15.19,119,17,52.93Z"/><path class="cls-76" d="M84.75,736.68,73.18,785.63l40.14,1.59Z"/><path class="cls-77" d="M361,728.72l-51.71,13.93L338.22,792Z"/><path class="cls-78" d="M530.58,768.92l-43-18.31,5.06,32.63Z"/><path class="cls-42" d="M84.75,736.68l-55.68,6,44.11,43Z"/><path class="cls-79" d="M135,764.14,84.75,736.68l28.57,50.54Z"/><path class="cls-80" d="M17.49,343.92l-5.42-113L6.64,422.31Z"/><path class="cls-81" d="M84.75,736.68,64.5,712.41,29.06,742.65Z"/><path class="cls-82" d="M255.42,709.62l-22.78,19.5L281.81,759Z"/><path class="cls-83" d="M436.57,677.39,361,728.72l78.83,34.22Z"/><path class="cls-84" d="M531.67,699.28l-44.11,51.33,43,18.31Z"/><path class="cls-85" d="M436.57,677.39l-55.32-4L361,728.72Z"/><path class="cls-86" d="M487.56,750.61l-21.7-68-26,80.38Z"/><path class="cls-87" d="M156.34,743.05l-22.42-51.73L135,764.14Z"/><path class="cls-88" d="M133.92,691.32,84.75,736.68,135,764.14Z"/><path class="cls-89" d="M232.64,729.12l-24.23-55.71-52.07,69.64Z"/><path class="cls-90" d="M465.86,682.56l-29.29-5.17,3.25,85.56Z"/><path class="cls-73" d="M208.41,673.41l-52.07,13.53v56.11Z"/><path class="cls-91" d="M309.29,742.65l-53.88-33L281.81,759Z"/><path class="cls-92" d="M361,728.72l-54.6-31,2.89,45Z"/><path class="cls-93" d="M306.4,697.69l-51,11.94,53.88,33Z"/><path class="cls-94" d="M531.67,699.28l-65.81-16.71,21.7,68Z"/><path class="cls-95" d="M64.5,712.41l-31.1-31-4.34,61.28Z"/><path class="cls-96" d="M156.34,686.94l-22.42,4.38,22.42,51.73Z"/><path class="cls-97" d="M133.92,691.32,64.5,712.41l20.25,24.27Z"/><path class="cls-98" d="M381.25,673.41,306.4,697.69l54.6,31Z"/><path class="cls-99" d="M255.42,709.62l-47-36.21,24.23,55.71Z"/><path class="cls-100" d="M529.86,527.37l-21.33,47,6.15,72Z"/><path class="cls-101" d="M381.25,673.41l-61.47-53.32-13.38,77.6Z"/><path class="cls-102" d="M492.26,649.14l-26.4,33.43,65.81,16.71Z"/><path class="cls-103" d="M514.67,646.35l-22.42,2.79,39.41,50.14Z"/><path class="cls-104" d="M228.66,652.32l-20.25,21.09,47,36.21Z"/><path class="cls-105" d="M306.4,697.69,290.13,634l-34.71,75.61Z"/><path class="cls-106" d="M53.29,657.49,33.4,681.37l31.1,31Z"/><path class="cls-107" d="M133.92,691.32,114.76,644,64.5,712.41Z"/><path class="cls-108" d="M114.76,644,53.29,657.49,64.5,712.41Z"/><path class="cls-109" d="M24.72,561.19,1.94,474.44l7.23,154.4Z"/><path class="cls-110" d="M290.13,634l-61.47,18.31,26.76,57.3Z"/><path class="cls-111" d="M208.41,673.41,165,639.19l-8.68,47.75Z"/><path class="cls-112" d="M319.78,620.09,290.13,634l16.27,63.67Z"/><path class="cls-113" d="M391.73,636l-10.49,37.41,55.32,4Z"/><path class="cls-73" d="M165,639.19,114.76,644l41.58,43Z"/><path class="cls-114" d="M156.34,686.94l-41.58-43,19.16,47.35Z"/><path class="cls-115" d="M434.4,630.83,391.73,636l44.84,41.39Z"/><path class="cls-116" d="M391.73,636l-72-15.92,61.47,53.32Z"/><path class="cls-117" d="M434.4,630.83l2.17,46.56,29.29,5.17Z"/><path class="cls-118" d="M492.26,649.14,434.4,630.83l31.46,51.73Z"/><path class="cls-11" d="M53.29,657.49,9.18,628.84,33.4,681.37Z"/><path class="cls-119" d="M228.66,652.32,165,639.19l43.39,34.22Z"/><path class="cls-120" d="M393.54,598.6l-73.76,21.49,72,15.92Z"/><path class="cls-121" d="M290.13,634,284,571.14l-55.32,81.18Z"/><path class="cls-122" d="M284,571.14l-64-4.78,8.68,86Z"/><path class="cls-123" d="M181.29,576.71,165,639.19l63.64,13.13Z"/><path class="cls-124" d="M114.76,644,81.49,568.36l-28.2,89.14Z"/><path class="cls-125" d="M81.49,568.36,9.18,628.84l44.11,28.65Z"/><path class="cls-126" d="M81.49,568.36l-56.77-7.16L9.18,628.84Z"/><path class="cls-127" d="M109.34,574.33l-27.84-6L114.76,644Z"/><path class="cls-128" d="M445.25,581.09,434.4,630.83l57.85,18.31Z"/><path class="cls-129" d="M469.48,569.95l-24.23,11.14,47,68Z"/><path class="cls-130" d="M220,566.37l-38.69,10.35,47.37,75.61Z"/><path class="cls-131" d="M165,639.19l-55.68-64.86L114.76,644Z"/><path class="cls-132" d="M514.67,646.35l-6.15-72-16.27,74.81Z"/><path class="cls-133" d="M508.53,574.33l-39.05-4.38,22.78,79.19Z"/><path class="cls-134" d="M393.54,598.6l-51.71-33.82-22.06,55.31Z"/><path class="cls-135" d="M434.4,630.83,393.54,598.6,391.73,636Z"/><path class="cls-136" d="M181.29,576.71l-72-2.39L165,639.19Z"/><path class="cls-137" d="M319.78,620.09,284,571.14,290.13,634Z"/><path class="cls-138" d="M445.25,581.09,393.54,598.6l40.86,32.23Z"/><path class="cls-139" d="M341.84,564.77,284,571.14l35.8,48.95Z"/><path class="cls-140" d="M261.93,544.48,220,566.37l64,4.78Z"/><path class="cls-141" d="M160.68,514.24l-51.35,60.09,72,2.39Z"/><path class="cls-142" d="M390.29,526.17l-48.45,38.6,51.71,33.82Z"/><path class="cls-143" d="M445.25,581.09,434.76,529,393.54,598.6Z"/><path class="cls-144" d="M434.76,529l-44.48-2.79,3.25,72.42Z"/><path class="cls-145" d="M39.55,535.33,24.72,561.19l56.77,7.16Z"/><path class="cls-146" d="M341.84,564.77l-2.17-33L284,571.14Z"/><path class="cls-147" d="M160.68,514.24l-21-8.36-30.37,68.45Z"/><path class="cls-148" d="M484.3,544.88l-14.83,25.07,39.05,4.38Z"/><path class="cls-149" d="M469.48,569.95l-34.71-41,10.49,52.13Z"/><path class="cls-150" d="M533.12,341.13,514,421.52l13.74,65.66Z"/><path class="cls-151" d="M390.29,526.17l-50.62,5.57,2.17,33Z"/><path class="cls-152" d="M223.6,507.87l-62.92,6.37L220,566.37Z"/><path class="cls-153" d="M220,566.37l-59.3-52.13,20.61,62.48Z"/><path class="cls-154" d="M339.67,531.75l-77.74,12.73L284,571.14Z"/><path class="cls-155" d="M139.71,505.88,81.49,568.36l27.84,6Z"/><path class="cls-156" d="M529.86,527.37,484.3,544.88l24.23,29.45Z"/><path class="cls-157" d="M39.55,535.33,1.94,474.44l22.78,86.75Z"/><path class="cls-158" d="M54,511.45,39.55,535.33l41.94,33Z"/><path class="cls-159" d="M139.71,505.88,54,511.45l27.48,56.91Z"/><path class="cls-160" d="M484.3,544.88,434.76,529l34.71,41Z"/><path class="cls-161" d="M261.93,544.48,223.6,507.87,220,566.37Z"/><path class="cls-162" d="M139.71,505.88l-13-36.21L54,511.45Z"/><path class="cls-163" d="M126.69,469.67l-54.6-6.37L54,511.45Z"/><path class="cls-164" d="M260.84,454.15,236.61,488l25.31,56.51Z"/><path class="cls-165" d="M339.67,531.75,313.27,451l-51.35,93.52Z"/><path class="cls-166" d="M313.27,451l-52.43,3.18,1.08,90.33Z"/><path class="cls-167" d="M236.61,488l-13,19.9,38.33,36.61Z"/><path class="cls-168" d="M529.86,527.37l-2.17-40.19-43.39,57.7Z"/><path class="cls-169" d="M527.69,487.18l-61.47-27.46,18.08,85.16Z"/><path class="cls-170" d="M466.22,459.72,434.76,529l49.54,15.92Z"/><path class="cls-171" d="M411.62,468.08l-21.33,58.1L434.76,529Z"/><path class="cls-172" d="M390.29,526.17,375.1,477.23l-35.44,54.52Z"/><path class="cls-173" d="M54,511.45l-52.07-37,37.61,60.88Z"/><path class="cls-174" d="M375.1,477.23,313.27,451l26.4,80.78Z"/><path class="cls-175" d="M223.6,507.87l-64.72-46.56,1.81,52.93Z"/><path class="cls-176" d="M466.22,459.72l-54.6,8.36L434.76,529Z"/><path class="cls-177" d="M411.62,468.08l-36.52,9.15,15.19,48.95Z"/><path class="cls-178" d="M236.61,488l-77.74-26.66,64.72,46.56Z"/><path class="cls-179" d="M72.09,463.3,1.94,474.44l52.07,37Z"/><path class="cls-180" d="M158.87,461.31l-19.16,44.57,21,8.36Z"/><path class="cls-181" d="M158.87,461.31l-32.18,8.36,13,36.21Z"/><path class="cls-182" d="M514,421.52l-35.07,4.38-12.66,33.82Z"/><path class="cls-183" d="M57.27,411.17,6.64,422.31l65.45,41Z"/><path class="cls-184" d="M72.09,463.3l-65.45-41-4.7,52.13Z"/><path class="cls-185" d="M371.49,431.47,313.27,451l61.83,26.26Z"/><path class="cls-186" d="M514,421.52l-47.73,38.2,61.47,27.46Z"/><path class="cls-187" d="M260.84,454.15,209.5,394.46,236.61,488Z"/><path class="cls-188" d="M209.5,394.46l-35.07,18.31L236.61,488Z"/><path class="cls-189" d="M174.42,412.76l-15.55,48.55L236.61,488Z"/><path class="cls-190" d="M135,420.72,72.09,463.3l54.6,6.37Z"/><path class="cls-191" d="M411.62,468.08l-40.14-36.61,3.62,45.76Z"/><path class="cls-192" d="M466.22,459.72,408,400l3.62,68Z"/><path class="cls-193" d="M478.88,425.89,408,400l58.22,59.69Z"/><path class="cls-194" d="M135,420.72l-77.74-9.55L72.09,463.3Z"/><path class="cls-195" d="M158.87,461.31,135,420.72l-8.32,48.95Z"/><path class="cls-196" d="M408,400l-36.52,31.44,40.14,36.61Z"/><path class="cls-197" d="M371.49,431.47l-51-27.06L313.27,451Z"/><path class="cls-198" d="M313.27,451l-34-58.89-18.44,62.08Z"/><path class="cls-199" d="M174.42,412.76l-39.41,8,23.86,40.59Z"/><path class="cls-200" d="M279.28,392.07l-12.66-15.52L209.5,394.46Z"/><path class="cls-201" d="M320.5,404.41l-41.22-12.34,34,58.89Z"/><path class="cls-202" d="M279.28,392.07l-69.79,2.39,51.35,59.69Z"/><path class="cls-203" d="M494.79,377.35l-70.87-31.44L408,400Z"/><path class="cls-204" d="M72.82,370.18l-15.55,41L135,420.72Z"/><path class="cls-205" d="M514,421.52l-19.16-44.17-15.91,48.55Z"/><path class="cls-206" d="M494.79,377.35,408,400l70.87,25.87Z"/><path class="cls-207" d="M376.91,342.33,320.5,404.41l51,27.06Z"/><path class="cls-208" d="M408,400l-31.1-57.7-5.42,89.14Z"/><path class="cls-209" d="M376.91,342.33l-47.37,6.76-9,55.31Z"/><path class="cls-210" d="M139.35,352.28,72.82,370.18,135,420.72Z"/><path class="cls-211" d="M533.12,341.13l-38.33,36.21L514,421.52Z"/><path class="cls-16" d="M57.27,411.17,17.49,343.92,6.64,422.31Z"/><path class="cls-212" d="M174.42,412.76l-15.91-50.14L135,420.72Z"/><path class="cls-213" d="M542.52,82.47l-12.66,70.83,2.53,52.93Z"/><path class="cls-214" d="M158.51,362.62l-19.16-10.35L135,420.72Z"/><path class="cls-215" d="M72.82,370.18,17.49,343.92l39.77,67.25Z"/><path class="cls-216" d="M209.5,394.46l-51-31.83,15.91,50.14Z"/><path class="cls-217" d="M329.54,349.09l-50.26,43,41.22,12.34Z"/><path class="cls-218" d="M266.63,376.55l-61.11-37.41,4,55.31Z"/><path class="cls-219" d="M205.52,339.14l-47,23.48,51,31.83Z"/><path class="cls-220" d="M423.92,345.91l-47-3.58L408,400Z"/><path class="cls-221" d="M27.62,316.06,12.07,230.91l5.42,113Z"/><path class="cls-222" d="M465.86,307.31l-41.94,38.6,70.87,31.44Z"/><path class="cls-223" d="M329.54,349.09l-62.92,27.46,12.66,15.52Z"/><path class="cls-224" d="M27.62,316.06,17.49,343.92l55.32,26.26Z"/><path class="cls-225" d="M139.35,352.28,83.66,320.84,72.82,370.18Z"/><path class="cls-226" d="M222.51,312.48l-17,26.66,61.11,37.41Z"/><path class="cls-227" d="M282.9,312.88l-60.39-.4,44.11,64.07Z"/><path class="cls-228" d="M329.54,349.09,282.9,312.88l-16.27,63.67Z"/><path class="cls-229" d="M533.12,341.13l-67.26-33.82,28.93,70Z"/><path class="cls-230" d="M83.66,320.84l-56-4.78,45.2,54.12Z"/><path class="cls-231" d="M133.56,308.9l-49.9,11.94,55.68,31.44Z"/><path class="cls-232" d="M205.52,339.14l-38.69-54.92-8.32,78.39Z"/><path class="cls-233" d="M133.56,308.9l5.79,43.38,19.16,10.35Z"/><path class="cls-234" d="M166.83,284.23,133.56,308.9l24.95,53.72Z"/><path class="cls-235" d="M537.45,285.82l-71.59,21.49,67.26,33.82Z"/><path class="cls-236" d="M376.55,320.84l.36,21.49,47,3.58Z"/><path class="cls-237" d="M409.45,297.76l-32.9,23.08,47.37,25.07Z"/><path class="cls-238" d="M376.91,342.33l-.36-21.49-47,28.25Z"/><path class="cls-239" d="M376.55,320.84,339.3,295.77l-9.76,53.32Z"/><path class="cls-240" d="M339.3,295.77,282.9,312.88l46.64,36.21Z"/><path class="cls-241" d="M465.86,307.31l-56.41-9.55,14.46,48.15Z"/><path class="cls-242" d="M222.51,312.48l-55.68-28.25,38.69,54.92Z"/><path class="cls-243" d="M537.45,285.82l-15.19-29.45-56.41,50.94Z"/><path class="cls-244" d="M339.3,295.77l-19.53-52.93-36.88,70Z"/><path class="cls-223" d="M233.36,259.56l-10.85,52.93,60.39.4Z"/><path class="cls-245" d="M256.14,244.44l-22.78,15.12,49.54,53.32Z"/><path class="cls-246" d="M409.45,297.76l-40.14-31.83,7.23,54.92Z"/><path class="cls-247" d="M369.32,265.92l-30,29.85,37.24,25.07Z"/><path class="cls-248" d="M72.09,267.12,27.62,316.06l56,4.78Z"/><path class="cls-249" d="M133.56,308.9,72.09,267.12l11.57,53.72Z"/><path class="cls-250" d="M30.51,180.37l-8.32-111L12.07,230.91Z"/><path class="cls-251" d="M430.42,234.49l-21,63.27,56.41,9.55Z"/><path class="cls-252" d="M130.67,243.24,72.09,267.12l61.47,41.78Z"/><path class="cls-151" d="M233.36,259.56l-66.53,24.67,55.68,28.25Z"/><path class="cls-253" d="M72.09,267.12l-60-36.21,15.55,85.16Z"/><path class="cls-254" d="M522.27,256.37,493.7,232.9l-27.84,74.41Z"/><path class="cls-255" d="M319.78,242.84l-63.64,1.59,26.76,68.45Z"/><path class="cls-256" d="M166.83,284.23l-36.16-41,2.89,65.66Z"/><path class="cls-257" d="M493.7,232.9l-63.28,1.59,35.44,72.82Z"/><path class="cls-258" d="M233.36,259.56,170.81,231.7l-4,52.53Z"/><path class="cls-259" d="M532.39,206.23l-10.12,50.14,15.19,29.45Z"/><path class="cls-260" d="M430.42,234.49l-61.11,31.44,40.14,31.83Z"/><path class="cls-261" d="M369.32,265.92l-49.54-23.08,19.53,52.93Z"/><path class="cls-262" d="M170.81,231.7l-40.14,11.54,36.16,41Z"/><path class="cls-263" d="M493.7,232.9l-22.42-25.07-40.86,26.66Z"/><path class="cls-264" d="M207,195.09,170.81,231.7l62.55,27.86Z"/><path class="cls-265" d="M340.75,193.1l-21,49.74,49.54,23.08Z"/><path class="cls-266" d="M388.12,211,340.75,193.1l28.57,72.82Z"/><path class="cls-267" d="M430.42,234.49,388.12,211l-18.8,54.92Z"/><path class="cls-268" d="M130.67,243.24,89.81,195.49,72.09,267.12Z"/><path class="cls-269" d="M89.81,195.49,12.07,230.91l60,36.21Z"/><path class="cls-270" d="M89.81,195.49l-59.3-15.12L12.07,230.91Z"/><path class="cls-271" d="M319.78,242.84l-44.11-51.33-19.53,52.93Z"/><path class="cls-272" d="M37,151.72,22.19,69.34l8.32,111Z"/><path class="cls-273" d="M256.14,244.44,207,195.09l26.4,64.47Z"/><path class="cls-274" d="M532.39,206.23,493.7,232.9l28.57,23.48Z"/><path class="cls-275" d="M422.11,197.08l-34,13.93,42.31,23.48Z"/><path class="cls-276" d="M340.75,193.1l-65.09-1.59,44.11,51.33Z"/><path class="cls-277" d="M170.81,231.7l-12.29-33.82-27.84,45.36Z"/><path class="cls-278" d="M131.75,184.35,89.81,195.49l40.86,47.75Z"/><path class="cls-279" d="M275.67,191.51,207,195.09l49.18,49.34Z"/><path class="cls-280" d="M158.51,197.88l-26.76-13.53-1.08,58.89Z"/><path class="cls-281" d="M207,195.09l-48.45,2.79,12.29,33.82Z"/><path class="cls-282" d="M471.28,207.83l-49.18-10.74,8.32,37.41Z"/><path class="cls-283" d="M532.39,206.23l-61.11,1.59L493.7,232.9Z"/><path class="cls-284" d="M320.86,139.78l-45.2,51.73,65.09,1.59Z"/><path class="cls-285" d="M275.67,191.51,240.23,135.8,207,195.09Z"/><path class="cls-286" d="M529.86,153.31,493.7,141.77l38.69,64.47Z"/><path class="cls-287" d="M532.39,206.23,493.7,141.77l-22.42,66.06Z"/><path class="cls-288" d="M493.7,141.77l-71.59,55.31,49.18,10.74Z"/><path class="cls-6" d="M422.11,197.08l-47.73-52.93L388.12,211Z"/><path class="cls-260" d="M374.38,144.16,340.75,193.1,388.12,211Z"/><path class="cls-289" d="M37,151.72l-6.51,28.65,59.3,15.12Z"/><path class="cls-290" d="M493.7,141.77l-65.45-20.69-6.15,76Z"/><path class="cls-291" d="M207,195.09l-24.23-57.3-24.23,60.09Z"/><path class="cls-292" d="M66.31,131,37,151.72l52.79,43.77Z"/><path class="cls-293" d="M131.75,184.35l7.59-30.64L89.81,195.49Z"/><path class="cls-282" d="M428.26,121.07l-53.88,23.08,47.73,52.93Z"/><path class="cls-294" d="M139.35,153.71l-7.59,30.64,26.76,13.53Z"/><path class="cls-295" d="M182.74,137.79l-43.39,15.92,19.16,44.17Z"/><path class="cls-296" d="M320.86,139.78l-46.64-11.94,1.45,63.67Z"/><path class="cls-297" d="M240.23,135.8l-57.49,2L207,195.09Z"/><path class="cls-298" d="M139.35,153.71,66.31,131l23.5,64.47Z"/><path class="cls-299" d="M274.22,127.84l-34,8,35.44,55.71Z"/><path class="cls-300" d="M374.38,144.16l-53.51-4.38,19.89,53.32Z"/><path class="cls-301" d="M324.48,89.64l-3.62,50.14,53.51,4.38Z"/><path class="cls-302" d="M542.52,82.47,493.7,141.77l36.16,11.54Z"/><path class="cls-303" d="M90.17,90.43,66.31,131l73,22.68Z"/><path class="cls-304" d="M133.56,98.39l-43.39-8,49.18,63.27Z"/><path class="cls-305" d="M182.74,137.79l-49.18-39.4,5.79,55.31Z"/><path class="cls-306" d="M240.23,135.8,225,80.49l-42.31,57.3Z"/><path class="cls-307" d="M366.06,78.89,324.48,89.64l49.9,54.52Z"/><path class="cls-308" d="M66.31,131,22.19,69.34,37,151.72Z"/><path class="cls-309" d="M324.48,89.64l-50.26,38.2,46.64,11.94Z"/><path class="cls-60" d="M491.89,66.56l-63.64,54.52,65.45,20.69Z"/><path class="cls-310" d="M542.52,82.47,491.89,66.56l1.81,75.21Z"/><path class="cls-311" d="M428.26,121.07,366.06,78.89l8.32,65.26Z"/><path class="cls-312" d="M165.74,69.74,133.56,98.39l49.18,39.4Z"/><path class="cls-168" d="M274.22,127.84,260.84,84.07,240.23,135.8Z"/><path class="cls-313" d="M225,80.49l-59.3-10.74,17,68Z"/><path class="cls-314" d="M421,63.77l-55,15.12,62.19,42.18Z"/><path class="cls-315" d="M260.84,84.07,225,80.49l15.19,55.31Z"/><path class="cls-316" d="M491.89,66.56,421,63.77l7.23,57.3Z"/><path class="cls-317" d="M324.48,89.64l-63.64-5.57,13.38,43.77Z"/><path class="cls-318" d="M90.17,90.43l-68-21.09L66.31,131Z"/><path class="cls-182" d="M268.8,27.16l-8,56.91,63.64,5.57Z"/><path class="cls-319" d="M335,42.68,268.8,27.16l55.68,62.48Z"/><path class="cls-320" d="M64.14,35.12,22.19,69.34l68,21.09Z"/><path class="cls-321" d="M127.05,34.72,90.17,90.43l43.39,8Z"/><path class="cls-322" d="M165.74,69.74l-38.69-35,6.51,63.67Z"/><path class="cls-60" d="M432.59,18.8,421,63.77l70.87,2.79Z"/><path class="cls-323" d="M486.11,22.78l-53.51-4,59.3,47.75Z"/><path class="cls-324" d="M509.61,33.53l-17.72,33,50.62,15.92Z"/><path class="cls-251" d="M366.06,78.89,335,42.68l-10.49,47Z"/><path class="cls-325" d="M127.05,34.72l-62.92.4,26,55.31Z"/><path class="cls-326" d="M224,6.07,166.83,8.86l-1.08,60.88Z"/><path class="cls-327" d="M421,63.77,375.1,2.09l-9,76.8Z"/><path class="cls-328" d="M224,6.07,165.74,69.74,225,80.49Z"/><path class="cls-329" d="M268.8,27.16,225,80.49l35.8,3.58Z"/><path class="cls-168" d="M268.8,27.16,224,6.07,225,80.49Z"/><path class="cls-330" d="M375.1,2.09,335,42.68l31.1,36.21Z"/><path class="cls-331" d="M432.59,18.8,375.1,2.09,421,63.77Z"/><path class="cls-332" d="M64.14,35.12,38.83,8.46,22.19,69.34Z"/><path class="cls-333" d="M166.83,8.86,127.05,34.72l38.69,35Z"/><path class="cls-334" d="M509.61,33.53l-23.5-10.74,5.79,43.77Z"/><path class="cls-335" d="M127.05,34.72,38.83,8.46,64.14,35.12Z"/><path class="cls-336" d="M375.1,2.09,268.8,27.16,335,42.68Z"/><path class="cls-337" d="M166.83,8.86l-128-.4,88.23,26.26Z"/><path class="cls-205" d="M375.1,2.09,224,6.07,268.8,27.16Z"/><path class="cls-338" d="M375.1,2.09,432.59,18.8l53.51,4Z"/><path class="cls-339" d="M224,6.07,38.83,8.46l128,.4Z"/></g><path class="cls-1" d="M505.31,310.41v-88H61.16V871.78H505.31V400.09H282.81v88h135v87.14H152V310.41ZM354.25,690.22H465.83v22.36H376.39v22.79h89.44v22.36H376.39v45.15H354.25ZM219,690.43h23v44.72h67.29V690.43h22.15V802.66H309.31V757.51H242v45.15H219Zm-22.36,90.08v22.36H104V690.43h22.14v90.08Z"/></g></g></svg>